<svg width="20" height="20" viewBox="0 0 20 20" fill="none" xmlns="http://www.w3.org/2000/svg">
<g id="Icon / Help-circle" clip-path="url(#clip0_148_3845)">
<g id="Union">
<path d="M8.3335 7.5C8.3335 7.01086 8.51594 6.69803 8.75546 6.4948C9.01309 6.2762 9.3863 6.14584 9.79183 6.14584C10.1974 6.14584 10.5706 6.2762 10.8282 6.4948C11.0677 6.69803 11.2502 7.01086 11.2502 7.5C11.2502 7.86431 11.1643 8.06656 11.0646 8.21614C10.9483 8.39065 10.7952 8.52826 10.5363 8.76098L10.4844 8.80767C10.218 9.04738 9.86764 9.37142 9.60047 9.84341C9.32514 10.3298 9.16683 10.9176 9.16683 11.6667C9.16683 12.1269 9.53993 12.5 10.0002 12.5C10.4604 12.5 10.8335 12.1269 10.8335 11.6667C10.8335 11.1658 10.9356 10.8681 11.0509 10.6644C11.1744 10.4463 11.3448 10.2755 11.5993 10.0465C11.6222 10.0259 11.6464 10.0044 11.6715 9.9819C11.8993 9.77892 12.2112 9.50087 12.4514 9.14064C12.7423 8.70428 12.9168 8.17736 12.9168 7.5C12.9168 6.53081 12.5264 5.74989 11.9065 5.22395C11.3048 4.71339 10.5321 4.47917 9.79183 4.47917C9.05153 4.47917 8.2789 4.71339 7.67716 5.22395C7.0573 5.74989 6.66683 6.53081 6.66683 7.5C6.66683 7.96024 7.03993 8.33334 7.50016 8.33334C7.9604 8.33334 8.3335 7.96024 8.3335 7.5Z" fill="#757575"/>
<path d="M10.6251 15.5597C10.9347 15.2192 10.9096 14.6922 10.5691 14.3826C10.2285 14.073 9.70149 14.0981 9.39189 14.4386L9.38356 14.4478C9.07396 14.7883 9.09905 15.3153 9.43959 15.6249C9.78013 15.9345 10.3072 15.9095 10.6168 15.5689L10.6251 15.5597Z" fill="#757575"/>
<path fill-rule="evenodd" clip-rule="evenodd" d="M10.0002 0.833336C4.93743 0.833336 0.833496 4.93727 0.833496 10C0.833496 15.0627 4.93743 19.1667 10.0002 19.1667C15.0629 19.1667 19.1668 15.0627 19.1668 10C19.1668 4.93727 15.0629 0.833336 10.0002 0.833336ZM2.50016 10C2.50016 5.85774 5.8579 2.5 10.0002 2.5C14.1424 2.5 17.5002 5.85774 17.5002 10C17.5002 14.1423 14.1424 17.5 10.0002 17.5C5.8579 17.5 2.50016 14.1423 2.50016 10Z" fill="#757575"/>
</g>
</g>
<defs>
<clipPath id="clip0_148_3845">
<rect width="20" height="20" fill="white"/>
</clipPath>
</defs>
</svg>
