<svg width="127" height="74" viewBox="0 0 127 74" fill="none" xmlns="http://www.w3.org/2000/svg">
<g id="illustration" clip-path="url(#clip0_33_2)">
<path id="Vector" d="M50.8208 7.13785C49.2735 9.18474 52.1871 12.6336 49.2507 13.3498L49.4926 13.164C51.2651 11.4898 47.5603 7.94632 49.3328 6.27212C49.6082 6.02654 49.8446 5.75669 50.0371 5.46826" fill="#2F2E41"/>
<path id="Vector_2" d="M65.3115 37.1673C65.3622 36.9625 65.3539 36.7516 65.287 36.5495C65.2201 36.3474 65.0963 36.1591 64.9244 35.9977C64.7525 35.8363 64.5365 35.7058 64.2918 35.6155C64.0471 35.5251 63.7796 35.477 63.5081 35.4747L59.6834 26.9418L57.5664 29.0139L61.6102 36.9869C61.6352 37.3375 61.8268 37.6688 62.1487 37.918C62.4705 38.1673 62.9003 38.3173 63.3565 38.3395C63.8128 38.3618 64.2638 38.2547 64.6241 38.0387C64.9844 37.8226 65.229 37.5126 65.3115 37.1673L65.3115 37.1673Z" fill="#FFB8B8"/>
<path id="Vector_3" d="M48.4991 16.5656C48.4991 16.5656 48.3801 13.4767 51.9771 15.2462C55.5741 17.0157 63.4057 33.5911 63.4057 33.5911L59.5083 35.2102L50.6609 20.0419L48.4991 16.5656Z" fill="#FC8585"/>
<path id="Vector_4" d="M59.1112 69.5055L57.315 70.0948L53.4997 65.0554L56.1508 64.1855L59.1112 69.5055Z" fill="#FFB6B6"/>
<path id="Vector_5" d="M61.3889 71.5841L60.1009 72.0067L59.3513 71.1483L59.2821 72.2754L55.8658 73.3964C55.7021 73.4502 55.5202 73.4623 55.3469 73.4311C55.1735 73.3998 55.0177 73.3269 54.9021 73.2228C54.7866 73.1187 54.7174 72.989 54.7046 72.8526C54.6919 72.7162 54.7362 72.5803 54.8312 72.4646L56.7542 70.1226L56.2289 69.1785L59.1716 68.3684L61.3889 71.5841Z" fill="#2F2E41"/>
<path id="Vector_6" d="M30.9548 71.2149L29.004 71.1416L28.4432 65.3284L31.3227 65.4365L30.9548 71.2149Z" fill="#FFB6B6"/>
<path id="Vector_7" d="M31.8194 73.8491L30.4203 73.7966L30.2351 72.773L29.531 73.7633L25.8203 73.624C25.6424 73.6173 25.472 73.5672 25.3339 73.4809C25.1958 73.3945 25.0972 73.2766 25.0526 73.1442C25.0079 73.0118 25.0196 72.8719 25.0858 72.745C25.152 72.6181 25.2693 72.5107 25.4206 72.4386L28.4839 70.9783L28.5492 69.9529L31.6569 70.2127L31.8194 73.8491Z" fill="#2F2E41"/>
<path id="Vector_8" d="M88.4369 70.2886C88.5661 70.2922 88.6937 70.2652 88.8023 70.2113C88.9109 70.1574 88.9952 70.0792 89.044 69.9872C89.0927 69.8952 89.1035 69.794 89.0748 69.6971C89.0461 69.6003 88.9793 69.5126 88.8835 69.4459C88.867 69.3975 88.8552 69.3627 88.8387 69.3143C88.9593 69.0723 89.1713 68.8634 89.4475 68.7145C89.7238 68.5656 90.0516 68.4834 90.389 68.4785C90.7265 68.4735 91.0581 68.5461 91.3415 68.6869C91.6249 68.8277 91.847 69.0302 91.9795 69.2686C92.7436 70.6065 93.7281 71.9902 93.2654 73.4733C96.3789 68.2787 95.2185 61.8538 90.4676 57.4656C89.1628 56.926 88.0986 55.9582 87.8106 54.8275C88.4551 54.9899 89.2511 54.5828 88.7616 54.0667C88.5498 53.8696 88.336 53.6741 88.1242 53.4771C90.5397 51.4635 93.4862 54.5788 90.8335 57.292C91.7227 58.1315 92.4951 59.0402 93.1383 60.0031C92.9798 58.9768 93.1408 57.9363 93.6082 56.9671C94.0828 56.0636 94.984 55.299 95.7763 54.5151C96.7395 53.56 98.7515 53.9827 98.8976 55.1847C98.0007 55.4184 97.8962 56.4173 98.9271 56.5464C98.6853 58.7863 96.8068 60.8569 94.1966 61.8575C95.1909 63.937 95.5966 66.1553 95.3866 68.3646C95.8175 65.7812 99.4163 65.1287 101.924 64.0849C102.084 64.0047 102.27 63.9619 102.461 63.9617C102.651 63.9614 102.838 64.0038 102.998 64.0836C103.158 64.1635 103.284 64.2772 103.361 64.4111C103.438 64.545 103.462 64.6932 103.431 64.8377C103.085 64.9489 102.753 65.0862 102.442 65.2477C102.296 65.3245 102.185 65.4341 102.124 65.5614C102.062 65.6887 102.053 65.8276 102.099 65.9588C102.144 66.0901 102.241 66.2074 102.376 66.2947C102.512 66.382 102.679 66.435 102.855 66.4464C101.615 68.8705 98.3496 70.5162 94.9755 70.5317C94.6647 71.616 94.208 72.6726 93.6127 73.6845L88.605 73.7211C88.5865 73.6785 88.5698 73.6345 88.5531 73.5919C89.0169 73.6109 89.482 73.5862 89.9379 73.5184C88.6978 72.4124 87.7423 71.8504 88.4367 70.2887L88.4369 70.2886Z" fill="#F2F2F2"/>
<path id="Vector_9" d="M35.8832 33.4267C35.8832 33.4267 31.9159 41.7291 31.8518 42.6582C31.7877 43.5873 30.6562 55.3362 29.7073 56.0189C28.7584 56.7015 25.8574 67.2852 28.1147 68.113C30.372 68.9408 37.4936 67.5694 37.4936 67.5694L39.9711 55.0677L40.8127 45.4897C40.8127 45.4897 43.3749 68.0441 48.022 67.9777C52.6691 67.9114 58.3319 66.5525 58.3319 66.5525L51.8275 52.8935C51.8275 52.8935 51.9195 36.7229 50.4118 33.4614C48.9042 30.1999 35.8832 33.4267 35.8832 33.4267Z" fill="#2F2E41"/>
<path id="Vector_10" d="M47.6554 12.0363L42.3423 12.41L41.4863 14.4277C41.4863 14.4277 37.0399 16.3028 38.0245 17.1547C39.0091 18.0066 37.8044 23.7475 37.8044 23.7475L38.0765 28.4075C38.0765 28.4075 37.7842 31.6361 36.9094 32.38C36.0347 33.1238 33.7463 34.9479 35.3633 34.0752C41.0329 31.0153 50.9427 33.5972 50.9427 33.5972L49.527 26.9387C49.527 26.9387 52.7426 16.037 51.4736 15.1164C50.2046 14.1957 49.0073 14.0793 49.0073 14.0793L47.6554 12.0363Z" fill="#FC8585"/>
<path id="Vector_11" d="M19.7372 33.1572C20.0042 33.1191 20.257 33.0364 20.4778 32.9151C20.6986 32.7938 20.8822 32.6368 21.0154 32.4551C21.1487 32.2735 21.2285 32.0716 21.2491 31.8637C21.2698 31.6558 21.2309 31.4469 21.1351 31.2518L30.0963 25.4137L26.8128 24.6526L18.6105 30.444C18.1943 30.5893 17.8621 30.8468 17.6767 31.1676C17.4913 31.4885 17.4656 31.8505 17.6044 32.1849C17.7433 32.5194 18.0372 32.8031 18.4302 32.9823C18.8233 33.1615 19.2884 33.2237 19.7372 33.1572Z" fill="#FFB8B8"/>
<path id="Vector_12" d="M42.4955 17.8864C42.4955 17.8864 44.2611 15.1096 40.0342 15.5839C35.8074 16.0582 19.7784 28.6839 19.7784 28.6839L22.4609 31.3923L38.6606 20.3701L42.4955 17.8864Z" fill="#FC8585"/>
<path id="Vector_13" d="M35.6121 13.1763L18.8535 29.6631C18.5635 29.9492 18.4332 30.312 18.4909 30.6718C18.5487 31.0316 18.7898 31.3592 19.1615 31.5827C23.0533 38.839 34.6965 44.2199 48.3931 49.104C48.7656 49.3268 49.2381 49.4271 49.7068 49.3827C50.1755 49.3384 50.6021 49.153 50.893 48.8674L67.6517 32.3805C67.9419 32.0945 68.0724 31.7317 68.0147 31.3718C67.9569 31.0119 67.7155 30.6843 67.3436 30.4609C55.8496 25.4771 45.9705 19.7028 38.112 12.9397C37.7394 12.7171 37.267 12.6169 36.7984 12.6613C36.3298 12.7056 35.9032 12.8908 35.6121 13.1763Z" fill="#E6E6E6"/>
<path id="Vector_14" d="M66.4754 32.0055L61.3743 37.0239C58.2582 40.071 53.6984 42.0473 48.6909 42.5212C43.6835 42.9951 38.6353 41.928 34.649 39.553L20.3532 30.9842C20.1415 30.8573 20.0039 30.6709 19.9708 30.4662C19.9377 30.2614 20.0117 30.055 20.1766 29.892L36.3705 13.9608C36.5363 13.7984 36.7792 13.6931 37.0459 13.6681C37.3126 13.643 37.5813 13.7003 37.7932 13.8272C45.0248 20.9979 54.7048 26.5782 66.3003 30.9142C66.5117 31.0412 66.6489 31.2274 66.6817 31.432C66.7146 31.6366 66.6404 31.8428 66.4754 32.0055Z" fill="white"/>
<path id="Vector_15" d="M35.2778 22.1765L31.9557 25.4448C31.8675 25.5314 31.7382 25.5875 31.5961 25.6009C31.4541 25.6143 31.3109 25.5838 31.1981 25.5162C31.0853 25.4486 31.0121 25.3493 30.9945 25.2403C30.9769 25.1312 31.0165 25.0213 31.1044 24.9346L34.4266 21.6663C34.4702 21.6233 34.5244 21.5874 34.5861 21.5605C34.6478 21.5336 34.7158 21.5163 34.7862 21.5096C34.8566 21.5029 34.9281 21.507 34.9964 21.5215C35.0648 21.536 35.1288 21.5608 35.1847 21.5943C35.2406 21.6278 35.2874 21.6695 35.3224 21.7169C35.3573 21.7643 35.3797 21.8165 35.3884 21.8706C35.397 21.9247 35.3917 21.9795 35.3728 22.032C35.3538 22.0845 35.3215 22.1336 35.2778 22.1765H35.2778Z" fill="#CCCCCC"/>
<path id="Vector_16" d="M41.5092 19.7522L34.2135 26.9296C34.1698 26.9725 34.1156 27.0084 34.0539 27.0353C33.9922 27.0621 33.9243 27.0793 33.8539 27.086C33.7835 27.0926 33.7121 27.0886 33.6438 27.0741C33.5755 27.0595 33.5115 27.0348 33.4556 27.0013C33.3997 26.9678 33.353 26.9262 33.318 26.8788C33.2831 26.8314 33.2607 26.7792 33.252 26.7252C33.2433 26.6712 33.2486 26.6163 33.2675 26.5639C33.2864 26.5114 33.3186 26.4623 33.3622 26.4194L40.658 19.242C40.7016 19.199 40.7558 19.163 40.8175 19.136C40.8792 19.1091 40.9472 19.0918 41.0177 19.0851C41.0881 19.0784 41.1596 19.0824 41.228 19.0969C41.2964 19.1114 41.3604 19.1362 41.4164 19.1697C41.4723 19.2033 41.5191 19.2449 41.5541 19.2924C41.589 19.3398 41.6115 19.3921 41.6201 19.4462C41.6287 19.5003 41.6233 19.5552 41.6043 19.6077C41.5853 19.6602 41.553 19.7093 41.5092 19.7522H41.5092Z" fill="#CCCCCC"/>
<path id="Vector_17" d="M29.0661 31.724C31.0301 31.724 32.6223 30.5014 32.6223 28.9932C32.6223 27.485 31.0301 26.2624 29.0661 26.2624C27.1021 26.2624 25.5099 27.485 25.5099 28.9932C25.5099 30.5014 27.1021 31.724 29.0661 31.724Z" fill="#FC8585"/>
<path id="Vector_18" d="M41.8966 25.4247L32.9359 34.24C32.8424 34.3132 32.7171 34.3573 32.5839 34.364C32.4508 34.3708 32.319 34.3397 32.2138 34.2766C32.1086 34.2135 32.0373 34.123 32.0135 34.0221C31.9897 33.9213 32.015 33.8172 32.0847 33.7298L41.0453 24.9145C41.1388 24.8414 41.2641 24.7973 41.3973 24.7905C41.5305 24.7838 41.6622 24.8149 41.7674 24.878C41.8726 24.941 41.9439 25.0316 41.9678 25.1324C41.9916 25.2333 41.9662 25.3373 41.8966 25.4247Z" fill="#CCCCCC"/>
<path id="Vector_19" d="M47.7095 23.4121L35.2027 35.716C35.1092 35.7892 34.9839 35.8333 34.8507 35.84C34.7175 35.8468 34.5858 35.8157 34.4806 35.7526C34.3754 35.6895 34.3041 35.599 34.2802 35.4981C34.2564 35.3973 34.2818 35.2932 34.3514 35.2058L46.8583 22.9018C46.9518 22.8287 47.0771 22.7846 47.2103 22.7778C47.3434 22.7711 47.4752 22.8022 47.5804 22.8653C47.6856 22.9283 47.7569 23.0189 47.7807 23.1198C47.8045 23.2206 47.7792 23.3246 47.7095 23.4121Z" fill="#CCCCCC"/>
<path id="Vector_20" d="M47.6661 28.883L38.7055 37.6982C38.6119 37.7714 38.4867 37.8155 38.3535 37.8222C38.2203 37.829 38.0886 37.7979 37.9834 37.7348C37.8782 37.6717 37.8068 37.5812 37.783 37.4803C37.7592 37.3795 37.7846 37.2754 37.8542 37.188L46.8149 28.3727C46.9084 28.2996 47.0337 28.2555 47.1668 28.2487C47.3 28.242 47.4318 28.2731 47.537 28.3362C47.6422 28.3992 47.7135 28.4898 47.7373 28.5907C47.7611 28.6915 47.7358 28.7955 47.6661 28.883Z" fill="#CCCCCC"/>
<path id="Vector_21" d="M59.5225 29.9701L50.5619 38.7854C50.4684 38.8585 50.3431 38.9026 50.2099 38.9094C50.0767 38.9161 49.945 38.885 49.8398 38.8219C49.7346 38.7589 49.6633 38.6683 49.6395 38.5675C49.6156 38.4666 49.641 38.3626 49.7107 38.2752L58.6713 29.4599C58.7648 29.3868 58.8901 29.3426 59.0233 29.3359C59.1564 29.3291 59.2882 29.3602 59.3934 29.4233C59.4986 29.4864 59.5699 29.577 59.5937 29.6778C59.6175 29.7786 59.5922 29.8827 59.5225 29.9701Z" fill="#FC8585"/>
<path id="Vector_22" d="M51.8478 33.4013L39.3409 45.7053C39.2474 45.7784 39.1221 45.8226 38.9889 45.8293C38.8558 45.836 38.724 45.8049 38.6188 45.7419C38.5136 45.6788 38.4423 45.5882 38.4185 45.4874C38.3947 45.3865 38.42 45.2825 38.4897 45.1951L50.9966 32.8911C51.0901 32.818 51.2153 32.7738 51.3485 32.7671C51.4817 32.7603 51.6134 32.7915 51.7186 32.8545C51.8239 32.9176 51.8952 33.0082 51.919 33.109C51.9428 33.2098 51.9174 33.3139 51.8478 33.4013Z" fill="#CCCCCC"/>
<path id="Vector_23" d="M38.7477 6.82753C38.7474 7.49089 38.9592 8.14417 39.3644 8.73003C39.7696 9.31588 40.3559 9.81639 41.0718 10.1876C41.7878 10.5588 42.6114 10.7895 43.4705 10.8592C44.3296 10.9289 45.1978 10.8356 45.999 10.5875C46.8002 10.3394 47.5098 9.94412 48.0656 9.43627C48.6213 8.92842 49.0062 8.32357 49.1865 7.67481C49.3668 7.02606 49.337 6.35324 49.0996 5.71541C48.8622 5.07759 48.4245 4.49426 47.825 4.01664L47.7997 3.99721C47.7575 3.96315 47.7153 3.92912 47.6709 3.89668C47.6706 3.89669 47.6704 3.89665 47.6701 3.89657C47.6699 3.89649 47.6696 3.89637 47.6694 3.89622C47.6692 3.89607 47.6691 3.89589 47.669 3.89569C47.6689 3.89549 47.6688 3.89528 47.6688 3.89506C47.6139 3.85616 47.5591 3.81725 47.502 3.77997C46.7395 3.26657 45.8003 2.93282 44.7971 2.81868C43.7939 2.70455 42.7691 2.81486 41.8454 3.13642C40.9217 3.45797 40.1383 3.97714 39.5889 4.63177C39.0395 5.2864 38.7475 6.04875 38.7477 6.82753V6.82753Z" fill="#2F2E41"/>
<path id="Vector_24" d="M45.3255 11.1635C47.7695 11.1635 49.7509 9.642 49.7509 7.76519C49.7509 5.88837 47.7695 4.36691 45.3255 4.36691C42.8814 4.36691 40.9001 5.88837 40.9001 7.76519C40.9001 9.642 42.8814 11.1635 45.3255 11.1635Z" fill="#FFB8B8"/>
<path id="Vector_25" d="M40.6077 8.67084C40.1752 7.17394 40.8004 5.49689 42.1636 4.49757C42.8492 4.00488 43.7019 3.67073 44.6237 3.53352C45.5456 3.39631 46.4991 3.46161 47.3748 3.72192C47.4861 3.75642 47.5973 3.79417 47.7066 3.83358L47.7574 3.85197V3.85767C47.7672 3.86291 47.7771 3.86842 47.7869 3.87399C47.8075 3.88884 47.8327 3.89949 47.86 3.90498C48.2443 3.89726 48.6263 3.95198 48.9811 4.06554C49.3359 4.17911 49.6554 4.34897 49.9188 4.56398C50.6047 5.13547 50.9276 6.05903 50.8286 7.16452L50.8255 7.19909L50.7872 7.21747C50.2679 7.47016 49.729 7.6983 49.1736 7.90063C47.2308 8.6021 45.4572 8.73208 43.7526 8.29748L43.7213 8.28952L43.0059 7.36875C42.859 8.0038 42.9374 10.1103 42.0946 10.2244L40.626 8.73434L40.6077 8.67084Z" fill="#2F2E41"/>
<path id="Vector_26" d="M31.2919 11.6297C32.7979 11.0328 30.8611 8.86646 31.2503 7.59986C31.6395 6.33327 34.4421 5.92589 34.6207 4.63175C34.7992 3.33761 35.2192 2.00284 36.3313 1.02084C37.0419 0.393344 38.089 -0.0698973 39.1671 0.00870077C39.5319 0.0352933 39.8849 0.121942 40.2021 0.262746C40.5193 0.403549 40.7933 0.595202 41.0054 0.824645C41.2175 1.05409 41.3626 1.31593 41.4311 1.59235C41.4995 1.86877 41.4895 2.15326 41.4018 2.42645C41.7088 2.09246 42.5031 2.16485 42.6997 2.54474C42.8746 2.88246 42.4884 3.29154 42.0339 3.32142C41.4392 3.88536 40.7583 4.48385 39.8266 4.59761C39.6782 4.62379 39.524 4.62372 39.3756 4.59742C39.2272 4.57112 39.0885 4.51926 38.97 4.44578C38.7508 4.28415 38.7338 3.96101 38.9938 3.84022C37.823 4.19736 37.1365 5.16943 36.9628 6.12759C36.7891 7.08574 37.0295 8.0552 37.1878 9.01492C37.3462 9.97464 37.4144 10.9842 36.9244 11.8754C36.3454 12.9284 35.0124 13.6831 33.5577 13.9251C32.1029 14.1672 30.5537 13.9306 29.2369 13.3977C27.9201 12.8647 26.822 12.0511 25.925 11.139C27.4702 11.9815 29.6079 12.2971 31.2919 11.6297Z" fill="#2F2E41"/>
<path id="Vector_27" d="M43.2114 7.54553C41.6641 9.59243 44.5777 13.0413 41.6413 13.7575L41.8832 13.5717C43.6557 11.8975 39.951 8.35401 41.7235 6.67981C41.9989 6.43422 42.2353 6.16438 42.4277 5.87595" fill="#2F2E41"/>
<path id="Vector_28" d="M40.8144 8.63987C40.8144 8.63987 42.1253 4.88232 47.7448 4.01504C47.7511 4.01344 47.7723 4.00695 47.7997 3.99723C47.8166 3.98912 47.8377 3.98101 47.8588 3.97291C47.7955 3.94535 47.7343 3.92104 47.6709 3.89671C47.6706 3.89671 47.6704 3.89667 47.6701 3.89659C47.6698 3.89651 47.6696 3.89639 47.6694 3.89624C47.6692 3.89609 47.6691 3.89591 47.669 3.89571C47.6689 3.89551 47.6688 3.8953 47.6688 3.89508C47.6139 3.85618 47.559 3.81728 47.502 3.77999L47.3416 3.78487C47.3416 3.78487 41.7031 3.09917 40.8144 8.63987Z" fill="#FD6584"/>
<path id="Vector_29" d="M9.37281e-07 73.8383C-8.1774e-05 73.8595 0.00531051 73.8806 0.0158647 73.9002C0.0264189 73.9199 0.041929 73.9377 0.0615011 73.9528C0.0810733 73.9678 0.104321 73.9797 0.129908 73.9878C0.155496 73.9959 0.182918 74.0001 0.210596 74H126.789C126.845 74 126.899 73.983 126.938 73.9526C126.978 73.9223 127 73.8812 127 73.8383C127 73.7954 126.978 73.7543 126.938 73.7239C126.899 73.6936 126.845 73.6766 126.789 73.6766H0.210586C0.182908 73.6765 0.155489 73.6807 0.129903 73.6888C0.104317 73.6969 0.0810692 73.7088 0.0614984 73.7238C0.0419276 73.7388 0.0264187 73.7567 0.0158647 73.7763C0.00531075 73.796 -8.05928e-05 73.817 9.37281e-07 73.8383Z" fill="#CCCCCC"/>
</g>
<defs>
<clipPath id="clip0_33_2">
<rect width="127" height="74" fill="white"/>
</clipPath>
</defs>
</svg>
