<svg width="20" height="25" viewBox="0 0 20 25" fill="none" xmlns="http://www.w3.org/2000/svg">
<g id="Group">
<path id="Vector" d="M4.08333 19.7083V10.3333C4.08333 8.67573 4.74181 7.08602 5.91392 5.91392C7.08602 4.74181 8.67573 4.08333 10.3333 4.08333C11.9909 4.08333 13.5806 4.74181 14.7528 5.91392C15.9249 7.08602 16.5833 8.67573 16.5833 10.3333V19.7083M4.08333 19.7083H16.5833M4.08333 19.7083H2M16.5833 19.7083H18.6667M9.29167 22.8333H11.375" stroke="#544C4C" stroke-width="2.66667" stroke-linecap="round" stroke-linejoin="round"/>
<path id="Vector_2" d="M10.3334 4.08333C10.9087 4.08333 11.3751 3.61696 11.3751 3.04167C11.3751 2.46637 10.9087 2 10.3334 2C9.75812 2 9.29175 2.46637 9.29175 3.04167C9.29175 3.61696 9.75812 4.08333 10.3334 4.08333Z" stroke="#544C4C" stroke-width="2.66667"/>
</g>
</svg>
