<svg width="17" height="20" viewBox="0 0 17 20" fill="none" xmlns="http://www.w3.org/2000/svg">
<path id="Notification" d="M17 16.7442H0V14.8837H0.85V8.40093C0.85 3.76093 4.2755 0 8.5 0C12.7245 0 16.15 3.76093 16.15 8.40093V14.8837H17V16.7442ZM2.55 14.8837H14.45V8.40093C14.45 4.78884 11.7861 1.86047 8.5 1.86047C5.2139 1.86047 2.55 4.78884 2.55 8.40093V14.8837ZM6.375 17.6744H10.625C10.625 18.2912 10.4011 18.8827 10.0026 19.3189C9.60409 19.755 9.06359 20 8.5 20C7.93641 20 7.39591 19.755 6.9974 19.3189C6.59888 18.8827 6.375 18.2912 6.375 17.6744Z" fill="white"/>
</svg>
