<svg width="20" height="25" viewBox="0 0 20 25" fill="none" xmlns="http://www.w3.org/2000/svg">
<path id="Vector" d="M8.75 18.75H11.25V11.25H8.75V18.75ZM10 8.75C10.3542 8.75 10.6513 8.63 10.8913 8.39C11.1313 8.15 11.2508 7.85333 11.25 7.5C11.25 7.14583 11.13 6.84875 10.89 6.60875C10.65 6.36875 10.3533 6.24917 10 6.25C9.64583 6.25 9.34875 6.37 9.10875 6.61C8.86875 6.85 8.74917 7.14667 8.75 7.5C8.75 7.85417 8.87 8.15125 9.11 8.39125C9.35 8.63125 9.64667 8.75083 10 8.75ZM10 25C7.10417 24.2708 4.71333 22.6092 2.8275 20.015C0.941667 17.4208 -0.000832781 14.5408 5.5212e-07 11.375V3.75L10 0L20 3.75V11.375C20 14.5417 19.0571 17.4221 17.1712 20.0163C15.2854 22.6104 12.895 24.2717 10 25ZM10 22.375C12.1667 21.6875 13.9583 20.3125 15.375 18.25C16.7917 16.1875 17.5 13.8958 17.5 11.375V5.46875L10 2.65625L2.5 5.46875V11.375C2.5 13.8958 3.20833 16.1875 4.625 18.25C6.04167 20.3125 7.83333 21.6875 10 22.375Z" fill="#544C4C"/>
</svg>
