<svg width="20" height="20" viewBox="0 0 20 20" fill="none" xmlns="http://www.w3.org/2000/svg">
<g id="Icon / Settings" clip-path="url(#clip0_148_3838)">
<g id="Union">
<path fill-rule="evenodd" clip-rule="evenodd" d="M10.0002 6.66666C9.11611 6.66666 8.26826 7.01785 7.64314 7.64297C7.01802 8.26809 6.66683 9.11594 6.66683 9.99999C6.66683 10.884 7.01802 11.7319 7.64314 12.357C8.26826 12.9821 9.11611 13.3333 10.0002 13.3333C10.8842 13.3333 11.7321 12.9821 12.3572 12.357C12.9823 11.7319 13.3335 10.884 13.3335 9.99999C13.3335 9.11594 12.9823 8.26809 12.3572 7.64297C11.7321 7.01785 10.8842 6.66666 10.0002 6.66666ZM8.82165 8.82148C9.13421 8.50892 9.55813 8.33333 10.0002 8.33333C10.4422 8.33333 10.8661 8.50892 11.1787 8.82148C11.4912 9.13404 11.6668 9.55797 11.6668 9.99999C11.6668 10.442 11.4912 10.8659 11.1787 11.1785C10.8661 11.4911 10.4422 11.6667 10.0002 11.6667C9.55813 11.6667 9.13421 11.4911 8.82165 11.1785C8.50909 10.8659 8.3335 10.442 8.3335 9.99999C8.3335 9.55797 8.50909 9.13404 8.82165 8.82148Z" fill="#757575"/>
<path fill-rule="evenodd" clip-rule="evenodd" d="M9.151 0.833328C8.77246 0.833328 8.44147 1.08846 8.34511 1.45453L7.92281 3.05887L6.58112 3.62446L5.55407 2.71073C5.22431 2.41735 4.723 2.43198 4.41091 2.74407L2.74424 4.41074C2.44232 4.71266 2.41745 5.19393 2.68663 5.52537L3.58674 6.63362L3.03478 7.99156L1.47737 8.35515C1.10026 8.44319 0.833496 8.77941 0.833496 9.16666V10.8333C0.833496 11.2091 1.08499 11.5384 1.44751 11.6373L3.05724 12.0764L3.62436 13.4217L2.71154 14.4454C2.41753 14.7751 2.43188 15.2769 2.74424 15.5892L4.41091 17.2559C4.71323 17.5582 5.19531 17.5827 5.5267 17.3126L6.63457 16.4095L7.95912 16.9543L8.35886 18.5373C8.4523 18.9074 8.78517 19.1667 9.16683 19.1667H10.8335C11.215 19.1667 11.5478 18.9076 11.6414 18.5377L12.0421 16.954L13.411 16.3871C13.5488 16.5026 13.7067 16.6382 13.864 16.7751C14.0202 16.9112 14.1654 17.0393 14.2716 17.1336C14.3247 17.1807 14.3679 17.2192 14.3978 17.2459L14.443 17.2864C14.7726 17.582 15.2764 17.569 15.5894 17.2559L17.2561 15.5892C17.5628 15.2825 17.5829 14.7918 17.3024 14.461L16.3947 13.3906L16.9564 12.0338L18.5431 11.6215C18.9104 11.5261 19.1668 11.1945 19.1668 10.815V9.16666C19.1668 8.78556 18.9083 8.45302 18.539 8.35905L16.9621 7.95786L16.4018 6.60444L17.3033 5.53795C17.5829 5.20708 17.5624 4.71709 17.2561 4.41074L15.5894 2.74407C15.2818 2.43648 14.7894 2.41723 14.4587 2.69987L13.4001 3.60472L11.999 3.02866L11.5853 1.4548C11.489 1.0886 11.158 0.833328 10.7793 0.833328H9.151ZM15.5348 14.9535L14.9647 15.5236L14.9584 15.5182C14.6507 15.2502 14.2542 14.9111 14.0306 14.7513C13.7966 14.584 13.4929 14.5492 13.2271 14.6593L11.0179 15.5743C10.7748 15.675 10.5935 15.8846 10.529 16.1397L10.1848 17.5H9.81589L9.4723 16.1393C9.40766 15.8833 9.22553 15.6731 8.98135 15.5727L6.80969 14.6793C6.5269 14.563 6.20313 14.6109 5.96612 14.8041L5.05711 15.5451L4.47926 14.9672L5.21878 14.138C5.43287 13.8979 5.48967 13.556 5.36472 13.2596L4.43556 11.0555C4.33614 10.8196 4.13388 10.6426 3.88698 10.5752L2.50016 10.1969V9.82785L3.83378 9.51651C4.09724 9.455 4.31445 9.26942 4.41632 9.01879L5.31632 6.80462C5.43079 6.52301 5.38284 6.20142 5.19119 5.96546L4.45409 5.05791L5.03356 4.47844L5.86625 5.21926C6.10632 5.43284 6.44778 5.48937 6.74387 5.36455L8.94803 4.43539C9.18627 4.33496 9.3644 4.12964 9.43021 3.87962L9.79336 2.49999H10.1367L10.4925 3.85352C10.559 4.10617 10.74 4.31305 10.9816 4.41239L13.2374 5.33989C13.5266 5.4588 13.8581 5.4058 14.0958 5.20262L14.9558 4.4675L15.5357 5.04734L14.8012 5.9162C14.6 6.15431 14.5484 6.48484 14.6677 6.7729L15.5819 8.98123C15.6824 9.2241 15.8916 9.40529 16.1464 9.4701L17.5002 9.81453V10.1705L16.1356 10.5251C15.8826 10.5908 15.6752 10.7714 15.5752 11.0129L14.6602 13.2229C14.5408 13.5114 14.5926 13.8425 14.7946 14.0806L15.5348 14.9535Z" fill="#757575"/>
</g>
</g>
<defs>
<clipPath id="clip0_148_3838">
<rect width="20" height="20" fill="white"/>
</clipPath>
</defs>
</svg>
