<svg width="21" height="26" viewBox="0 0 21 26" fill="none" xmlns="http://www.w3.org/2000/svg">
<g id="fluent:eye-20-filled">
<g clip-path="url(#clip0_12_93)">
<g id="Group">
<path id="Vector" d="M1.15317 14.9224C1.94716 10.9924 5.26635 8.2 9 8.2C12.7325 8.2 16.0517 10.9924 16.8468 14.9224C16.8783 15.0783 16.9686 15.215 17.0979 15.3023C17.2271 15.3896 17.3848 15.4205 17.5361 15.388C17.6874 15.3555 17.8199 15.2625 17.9047 15.1292C17.9894 14.996 18.0193 14.8335 17.9878 14.6776C17.0832 10.2076 13.2995 7 9 7C4.70054 7 0.916829 10.2076 0.0122309 14.6776C-0.0192636 14.8335 0.0106344 14.996 0.0953477 15.1292C0.180061 15.2625 0.312651 15.3555 0.463948 15.388C0.615245 15.4205 0.772857 15.3896 0.90211 15.3023C1.03136 15.215 1.12167 15.0783 1.15317 14.9224ZM8.98836 10.6C10.0691 10.6 11.1055 11.0425 11.8697 11.8302C12.6338 12.6178 13.0631 13.6861 13.0631 14.8C13.0631 15.9139 12.6338 16.9822 11.8697 17.7698C11.1055 18.5575 10.0691 19 8.98836 19C7.90766 19 6.87123 18.5575 6.10706 17.7698C5.3429 16.9822 4.91359 15.9139 4.91359 14.8C4.91359 13.6861 5.3429 12.6178 6.10706 11.8302C6.87123 11.0425 7.90766 10.6 8.98836 10.6Z" fill="url(#paint0_linear_12_93)"/>
</g>
</g>
</g>
<defs>
<linearGradient id="paint0_linear_12_93" x1="18.0005" y1="19.0046" x2="4.66537" y2="3.0877" gradientUnits="userSpaceOnUse">
<stop stop-color="#415B9B"/>
<stop offset="1" stop-color="#6260CF"/>
</linearGradient>
<clipPath id="clip0_12_93">
<rect x="0.223572" y="0.166667" width="20.4713" height="25.6667" rx="8" fill="white"/>
</clipPath>
</defs>
</svg>
